<?xml version="1.0" encoding="utf-8"?>
<!-- Generator: Adobe Illustrator 26.2.1, SVG Export Plug-In . SVG Version: 6.00 Build 0)  -->
<svg version="1.1" id="Layer_1" xmlns="http://www.w3.org/2000/svg" xmlns:xlink="http://www.w3.org/1999/xlink" x="0px" y="0px"
	 viewBox="0 0 535.7 372.5" style="enable-background:new 0 0 535.7 372.5;" xml:space="preserve">
<style type="text/css">
	.st0{fill:#EAAB00;}
	.st1{fill:#EDB61D;}
	.st2{fill:#FFFFFF;}
</style>
<path class="st0" d="M323.7,64.9h89.6l43.2,178.8H367L323.7,64.9z"/>
<path class="st0" d="M201.3,64.9h89.6l43.2,178.8h-89.7L201.3,64.9z"/>
<polygon class="st0" points="78.9,65 168.5,65 211.8,243.9 122.1,243.9 "/>
<g>
	<path class="st0" d="M528.5,154.4c0-2,1.6-3.6,3.6-3.6s3.6,1.6,3.6,3.6c0,2-1.6,3.6-3.6,3.6C530.1,157.9,528.5,156.3,528.5,154.4"
		/>
</g>
<g>
	<path class="st0" d="M514.1,154.4c0-2,1.6-3.6,3.6-3.6s3.6,1.6,3.6,3.6c0,2-1.6,3.6-3.6,3.6C515.7,157.9,514.1,156.3,514.1,154.4"
		/>
</g>
<g>
	<path class="st0" d="M499.7,154.4c0-2,1.6-3.6,3.6-3.6c2,0,3.6,1.6,3.6,3.6c0,2-1.6,3.6-3.6,3.6
		C501.3,157.9,499.7,156.3,499.7,154.4"/>
</g>
<g>
	<path class="st0" d="M485.2,154.4c0-2,1.6-3.6,3.6-3.6s3.6,1.6,3.6,3.6c0,2-1.6,3.6-3.6,3.6S485.2,156.3,485.2,154.4"/>
</g>
<g>
	<path class="st0" d="M470.8,154.4c0-2,1.6-3.6,3.6-3.6c2,0,3.6,1.6,3.6,3.6c0,2-1.6,3.6-3.6,3.6
		C472.4,157.9,470.8,156.3,470.8,154.4"/>
</g>
<g>
	<path class="st0" d="M456.4,154.4c0-2,1.6-3.6,3.6-3.6c2,0,3.6,1.6,3.6,3.6c0,2-1.6,3.6-3.6,3.6C458,158,456.4,156.3,456.4,154.4"
		/>
</g>
<g>
	<path class="st0" d="M440,154.4c0-2,1.6-3.6,3.6-3.6c2,0,3.6,1.6,3.6,3.6c0,2-1.6,3.6-3.6,3.6C441.6,157.9,440,156.3,440,154.4"/>
</g>
<g>
	<path class="st0" d="M333,154.4c0-2,1.6-3.6,3.6-3.6s3.6,1.6,3.6,3.6c0,2-1.6,3.6-3.6,3.6S333,156.3,333,154.4"/>
</g>
<g>
	<path class="st0" d="M318.6,154.4c0-2,1.6-3.6,3.6-3.6s3.6,1.6,3.6,3.6c0,2-1.6,3.6-3.6,3.6C320.2,157.9,318.6,156.3,318.6,154.4"
		/>
</g>
<g>
	<path class="st1" d="M304.1,154.4c0-2,1.6-3.6,3.6-3.6s3.6,1.6,3.6,3.6c0,2-1.6,3.6-3.6,3.6C305.8,157.9,304.1,156.3,304.1,154.4"
		/>
</g>
<g>
	<path class="st1" d="M289.6,154.4c0-2,1.6-3.6,3.6-3.6s3.6,1.6,3.6,3.6c0,2-1.6,3.6-3.6,3.6C291.2,157.9,289.6,156.3,289.6,154.4"
		/>
</g>
<g>
	<path class="st1" d="M275.2,154.4c0-2,1.6-3.6,3.6-3.6s3.6,1.6,3.6,3.6c0,2-1.6,3.6-3.6,3.6C276.8,157.9,275.2,156.3,275.2,154.4"
		/>
</g>
<g>
	<rect x="263.6" class="st0" width="11" height="308.7"/>
</g>
<g>
	<rect x="263.6" y="64.9" class="st2" width="11" height="178.8"/>
</g>
<g>
	<path class="st2" d="M423.5,154.4c0-2,1.6-3.6,3.6-3.6s3.6,1.6,3.6,3.6c0,2-1.6,3.6-3.6,3.6C425.1,157.9,423.5,156.3,423.5,154.4"
		/>
</g>
<g>
	<path class="st2" d="M409.1,154.4c0-2,1.6-3.6,3.6-3.6s3.6,1.6,3.6,3.6c0,2-1.6,3.6-3.6,3.6S409.1,156.3,409.1,154.4"/>
</g>
<g>
	<path class="st2" d="M394.7,154.4c0-2,1.6-3.6,3.6-3.6s3.6,1.6,3.6,3.6c0,2-1.6,3.6-3.6,3.6C396.3,157.9,394.7,156.3,394.7,154.4"
		/>
</g>
<g>
	<path class="st2" d="M380.3,154.4c0-2,1.6-3.6,3.6-3.6s3.6,1.6,3.6,3.6c0,2-1.6,3.6-3.6,3.6C381.9,157.9,380.3,156.3,380.3,154.4"
		/>
</g>
<g>
	<path class="st2" d="M365.9,154.4c0-2,1.6-3.6,3.6-3.6s3.6,1.6,3.6,3.6c0,2-1.6,3.6-3.6,3.6C367.5,157.9,365.9,156.3,365.9,154.4"
		/>
</g>
<g>
	<path class="st2" d="M351.5,154.4c0-2,1.6-3.6,3.6-3.6s3.6,1.6,3.6,3.6c0,2-1.6,3.6-3.6,3.6C353,157.9,351.5,156.3,351.5,154.4"/>
</g>
<g>
	<path class="st2" d="M304.1,154.4c0-2,1.6-3.6,3.6-3.6s3.6,1.6,3.6,3.6c0,2-1.6,3.6-3.6,3.6C305.8,157.9,304.1,156.3,304.1,154.4"
		/>
</g>
<g>
	<path class="st2" d="M289.6,154.4c0-2,1.6-3.6,3.6-3.6s3.6,1.6,3.6,3.6c0,2-1.6,3.6-3.6,3.6C291.2,157.9,289.6,156.3,289.6,154.4"
		/>
</g>
<g>
	<path class="st2" d="M275.2,154.4c0-2,1.6-3.6,3.6-3.6s3.6,1.6,3.6,3.6c0,2-1.6,3.6-3.6,3.6C276.8,157.9,275.2,156.3,275.2,154.4"
		/>
</g>
<g>
	<path class="st2" d="M254.7,154.4c0-2,1.6-3.6,3.6-3.6c2,0,3.5,1.6,3.5,3.6c0,2-1.6,3.6-3.5,3.6
		C256.3,157.9,254.7,156.3,254.7,154.4"/>
</g>
<g>
	<path class="st2" d="M240.3,154.4c0-2,1.6-3.6,3.6-3.6s3.6,1.6,3.6,3.6c0,2-1.6,3.6-3.6,3.6S240.3,156.3,240.3,154.4"/>
</g>
<g>
	<path class="st2" d="M225.9,154.4c0-2,1.6-3.6,3.6-3.6s3.6,1.6,3.6,3.6c0,2-1.6,3.6-3.6,3.6C227.5,157.9,225.9,156.3,225.9,154.4"
		/>
</g>
<g>
	<path d="M176.2,264.9c-34-30.3-51.2-73.6-47.2-118.8c6.8-78.2,76-136.3,154.2-129.4c45.3,4,84.9,28.4,108.9,67.2l-4.1,2.6
		c-23.1-37.4-61.4-61-105.1-64.9C207.4,15,140.6,71.1,134,146.6c-3.8,43.7,12.8,85.5,45.6,114.8L176.2,264.9z"/>
</g>
<g>
	<path d="M271.2,289.8c-21.5,0-42.7-5.3-62.2-15.6c-64.7-34.4-89.3-115-54.9-179.7l10.1,5.4c-31.4,59.1-8.9,132.8,50.2,164.2
		c28.6,15.2,61.5,18.4,92.5,8.9s56.5-30.5,71.7-59.1l10.1,5.4c-16.7,31.3-44.5,54.3-78.5,64.7C297.4,287.9,284.3,289.8,271.2,289.8z
		"/>
</g>
<g>
	<polygon points="63.3,341.3 51.2,364.3 39.6,341.3 31.6,341.3 19.8,364.2 7.9,341.3 -0.1,341.3 15.9,372.1 24,372.1 35.6,349.2 
		47.2,372.1 55.3,372.1 71.3,341.3 	"/>
	<rect x="101.9" y="341.3" width="7.7" height="30.8"/>
	<polygon points="186.7,341.3 186.7,364.6 154.9,341.3 145.7,341.3 145.7,372.1 153.4,372.1 153.4,348.8 185.2,372.1 194.4,372.1 
		194.4,341.3 	"/>
	<polygon points="319.3,366.2 319.3,341.3 311.6,341.3 311.6,372.1 347.8,372.1 347.8,366.2 	"/>
	<path d="M419.5,341h-21.1c-10.1,0-14.5,3.5-14.5,11.9v7.7c0,8.3,4.3,11.9,14.5,11.9h21.1c10.1,0,14.5-3.5,14.5-11.9v-7.7
		C433.9,344.6,429.6,341,419.5,341z M426.2,351.5V362c0,2.8-1.2,4.6-7.2,4.6h-20.1c-6,0-7.2-1.8-7.2-4.6v-10.5
		c0-2.8,1.2-4.6,7.2-4.6H419C424.9,346.9,426.2,348.7,426.2,351.5z"/>
	<polygon points="527.6,341.3 515.5,364.3 504,341.3 495.9,341.3 484.1,364.2 472.2,341.3 464.2,341.3 480.2,372.1 488.3,372.1 
		499.9,349.2 511.5,372.1 519.6,372.1 535.6,341.3 	"/>
	<path d="M260.3,353.6h-14.7c-7.7,0-7.7-1.1-7.7-3.1c0-2.9,1.1-3.6,11.6-3.6h5.3c11.5,0,12.2,0.5,12.3,3.4h7.4v-0.4
		c0-7.3-6.4-8.8-16.8-8.8H247c-8.4,0-16.6,0.7-16.6,9.2c0,9.1,7,9.5,21.5,9.5h9.4c6.6,0,6.6,1.1,6.6,3c0,2.4-0.4,3.8-7.9,3.8h-15.4
		c-6.7,0-6.7-1.6-6.7-2.7v-1.5h-7.4v1.5c0,8.5,10.1,8.5,15,8.5h13.8c6,0,16.1,0,16.1-8.8v-1.8C275.4,354.5,267.4,353.6,260.3,353.6z
		"/>
</g>
</svg>
